<?xml version="1.0" encoding="UTF-8"?>
<svg width="1000px" height="1000px" viewBox="0 0 1000 1000" version="1.1" xmlns="http://www.w3.org/2000/svg" xmlns:xlink="http://www.w3.org/1999/xlink">
    <title>Icon</title>
    <g id="Icon" stroke="none" stroke-width="1" fill="none" fill-rule="evenodd">
        <path d="M500,0 L500.00051,180.702281 C511.767329,173.895659 525.428725,170 540,170 C584.18278,170 620,205.81722 620,250 C620,294.18278 584.18278,330 540,330 C525.428725,330 511.767329,326.104341 500.00051,319.297719 L500,500 L319.297143,500.000486 C326.104121,488.233441 330,474.571686 330,460 C330,415.81722 294.18278,380 250,380 C205.81722,380 170,415.81722 170,460 C170,474.571686 173.895879,488.233441 180.702857,500.000486 L0,500 L0,0 L500,0 Z" id="Combined-Shape" fill="#FF3B30"></path>
        <path d="M940,60 L940.00051,240.702281 C951.767329,233.895659 965.428725,230 980,230 C1024.18278,230 1060,265.81722 1060,310 C1060,354.18278 1024.18278,390 980,390 C965.428725,390 951.767329,386.104341 940.00051,379.297719 L940,560 L759.297143,560.000486 C766.104121,548.233441 770,534.571686 770,520 C770,475.81722 734.18278,440 690,440 C645.81722,440 610,475.81722 610,520 C610,534.571686 613.895879,548.233441 620.702857,560.000486 L440,560 L440,60 L940,60 Z" id="Combined-Shape" fill="#FFCC00" transform="translate(750.000000, 310.000243) rotate(90.000000) translate(-750.000000, -310.000243) "></path>
        <path d="M880,500 L880.00051,680.702281 C891.767329,673.895659 905.428725,670 920,670 C964.18278,670 1000,705.81722 1000,750 C1000,794.18278 964.18278,830 920,830 C905.428725,830 891.767329,826.104341 880.00051,819.297719 L880,1000 L699.297143,1000.00049 C706.104121,988.233441 710,974.571686 710,960 C710,915.81722 674.18278,880 630,880 C585.81722,880 550,915.81722 550,960 C550,974.571686 553.895879,988.233441 560.702857,1000.00049 L380,1000 L380,500 L880,500 Z" id="Combined-Shape" fill="#007AFF" transform="translate(690.000000, 750.000243) rotate(180.000000) translate(-690.000000, -750.000243) "></path>
        <path d="M440,440 L440.00051,620.702281 C451.767329,613.895659 465.428725,610 480,610 C524.18278,610 560,645.81722 560,690 C560,734.18278 524.18278,770 480,770 C465.428725,770 451.767329,766.104341 440.00051,759.297719 L440,940 L259.297143,940.000486 C266.104121,928.233441 270,914.571686 270,900 C270,855.81722 234.18278,820 190,820 C145.81722,820 110,855.81722 110,900 C110,914.571686 113.895879,928.233441 120.702857,940.000486 L-60,940 L-60,440 L440,440 Z" id="Combined-Shape" fill="#3BC759" transform="translate(250.000000, 690.000243) rotate(270.000000) translate(-250.000000, -690.000243) "></path>
    </g>
</svg>