<?xml version="1.0" encoding="UTF-8"?>
<svg width="512px" height="512px" viewBox="0 0 512 512" version="1.1" xmlns="http://www.w3.org/2000/svg" xmlns:xlink="http://www.w3.org/1999/xlink">
    <!-- Generator: Sketch 61.2 (89653) - https://sketch.com -->
    <title>Website</title>
    <desc>Created with Sketch.</desc>
    <g id="Website" stroke="none" stroke-width="1" fill="none" fill-rule="evenodd">
        <g id="App-Icon">
            <rect id="Bottom" fill="#F2F2F2" x="0" y="0" width="512" height="512" rx="60"></rect>
            <path d="M0,60.0048404 C0,26.8650821 26.8624794,0 60.0022463,0 L451.997754,0 C485.136079,0 512,26.8705923 512,60.0048404 L512,160 L0,160 L0,60.0048404 Z" id="Top" fill="#00A8E8"></path>
            <path d="M24,284.008956 C24,267.435467 37.4327673,254 53.9977275,254 L458.002273,254 C474.56956,254 488,267.435997 488,284.008956 L488,287.991044 C488,304.564533 474.567233,318 458.002273,318 L53.9977275,318 C37.4304401,318 24,304.564003 24,287.991044 L24,284.008956 Z" id="Selected-Row" fill-opacity="0.2" fill="#00A8E8"></path>
            <path d="M59,410 C71.0287619,410 80.8027752,419.651107 80.9970526,431.636111 L81,432 C81,444.028762 71.3488926,453.802775 59.3638888,453.997053 L59,454 C46.8497355,454 37,444.152936 37,432 C37,419.971238 46.6511074,410.197225 58.6361112,410.002947 L59,410 Z M121,410 C133.028762,410 142.802775,419.651107 142.997053,431.636111 L143,432 C143,444.028762 133.348893,453.802775 121.363889,453.997053 L121,454 C108.849736,454 99,444.152936 99,432 C99,419.971238 108.651107,410.197225 120.636111,410.002947 L121,410 Z M187,410 C199.028762,410 208.802775,419.651107 208.997053,431.636111 L209,432 C209,444.028762 199.348893,453.802775 187.363889,453.997053 L187,454 C174.849736,454 165,444.152936 165,432 C165,419.971238 174.651107,410.197225 186.636111,410.002947 L187,410 Z M253,410 C265.028762,410 274.802775,419.651107 274.997053,431.636111 L275,432 C275,444.028762 265.348893,453.802775 253.363889,453.997053 L253,454 C240.849736,454 231,444.152936 231,432 C231,419.971238 240.651107,410.197225 252.636111,410.002947 L253,410 Z M319,410 C331.028762,410 340.802775,419.651107 340.997053,431.636111 L341,432 C341,444.028762 331.348893,453.802775 319.363889,453.997053 L319,454 C306.849736,454 297,444.152936 297,432 C297,419.971238 306.651107,410.197225 318.636111,410.002947 L319,410 Z M385,410 C397.028762,410 406.802775,419.651107 406.997053,431.636111 L407,432 C407,444.028762 397.348893,453.802775 385.363889,453.997053 L385,454 C372.849736,454 363,444.152936 363,432 C363,419.971238 372.651107,410.197225 384.636111,410.002947 L385,410 Z M58,336 C70.0287619,336 79.8027752,345.651107 79.9970526,357.636111 L80,358 C80,370.028762 70.3488926,379.802775 58.3638888,379.997053 L58,380 C45.8497355,380 36,370.152936 36,358 C36,345.971238 45.6511074,336.197225 57.6361112,336.002947 L58,336 Z M120,336 C132.028762,336 141.802775,345.651107 141.997053,357.636111 L142,358 C142,370.028762 132.348893,379.802775 120.363889,379.997053 L120,380 C107.849736,380 98,370.152936 98,358 C98,345.971238 107.651107,336.197225 119.636111,336.002947 L120,336 Z M186,336 C198.028762,336 207.802775,345.651107 207.997053,357.636111 L208,358 C208,370.028762 198.348893,379.802775 186.363889,379.997053 L186,380 C173.849736,380 164,370.152936 164,358 C164,345.971238 173.651107,336.197225 185.636111,336.002947 L186,336 Z M252,336 C264.028762,336 273.802775,345.651107 273.997053,357.636111 L274,358 C274,370.028762 264.348893,379.802775 252.363889,379.997053 L252,380 C239.849736,380 230,370.152936 230,358 C230,345.971238 239.651107,336.197225 251.636111,336.002947 L252,336 Z M318,336 C330.028762,336 339.802775,345.651107 339.997053,357.636111 L340,358 C340,370.028762 330.348893,379.802775 318.363889,379.997053 L318,380 C305.849736,380 296,370.152936 296,358 C296,345.971238 305.651107,336.197225 317.636111,336.002947 L318,336 Z M454,336 C466.028762,336 475.802775,345.651107 475.997053,357.636111 L476,358 C476,370.028762 466.348893,379.802775 454.363889,379.997053 L454,380 C441.849736,380 432,370.152936 432,358 C432,345.971238 441.651107,336.197225 453.636111,336.002947 L454,336 Z M384,336 C396.028762,336 405.802775,345.651107 405.997053,357.636111 L406,358 C406,370.028762 396.348893,379.802775 384.363889,379.997053 L384,380 C371.849736,380 362,370.152936 362,358 C362,345.971238 371.651107,336.197225 383.636111,336.002947 L384,336 Z M58,262 C70.0287619,262 79.8027752,271.651107 79.9970526,283.636111 L80,284 C80,296.028762 70.3488926,305.802775 58.3638888,305.997053 L58,306 C45.8497355,306 36,296.152936 36,284 C36,271.971238 45.6511074,262.197225 57.6361112,262.002947 L58,262 Z M120,262 C132.028762,262 141.802775,271.651107 141.997053,283.636111 L142,284 C142,296.028762 132.348893,305.802775 120.363889,305.997053 L120,306 C107.849736,306 98,296.152936 98,284 C98,271.971238 107.651107,262.197225 119.636111,262.002947 L120,262 Z M186,262 C198.028762,262 207.802775,271.651107 207.997053,283.636111 L208,284 C208,296.028762 198.348893,305.802775 186.363889,305.997053 L186,306 C173.849736,306 164,296.152936 164,284 C164,271.971238 173.651107,262.197225 185.636111,262.002947 L186,262 Z M252,262 C264.028762,262 273.802775,271.651107 273.997053,283.636111 L274,284 C274,296.028762 264.348893,305.802775 252.363889,305.997053 L252,306 C239.849736,306 230,296.152936 230,284 C230,271.971238 239.651107,262.197225 251.636111,262.002947 L252,262 Z M318,262 C330.028762,262 339.802775,271.651107 339.997053,283.636111 L340,284 C340,296.028762 330.348893,305.802775 318.363889,305.997053 L318,306 C305.849736,306 296,296.152936 296,284 C296,271.971238 305.651107,262.197225 317.636111,262.002947 L318,262 Z M454,262 C466.028762,262 475.802775,271.651107 475.997053,283.636111 L476,284 C476,296.028762 466.348893,305.802775 454.363889,305.997053 L454,306 C441.849736,306 432,296.152936 432,284 C432,271.971238 441.651107,262.197225 453.636111,262.002947 L454,262 Z M384,262 C396.028762,262 405.802775,271.651107 405.997053,283.636111 L406,284 C406,296.028762 396.348893,305.802775 384.363889,305.997053 L384,306 C371.849736,306 362,296.152936 362,284 C362,271.971238 371.651107,262.197225 383.636111,262.002947 L384,262 Z M318,188 C330.028762,188 339.802775,197.651107 339.997053,209.636111 L340,210 C340,222.028762 330.348893,231.802775 318.363889,231.997053 L318,232 C305.849736,232 296,222.152936 296,210 C296,197.971238 305.651107,188.197225 317.636111,188.002947 L318,188 Z M454,188 C466.028762,188 475.802775,197.651107 475.997053,209.636111 L476,210 C476,222.028762 466.348893,231.802775 454.363889,231.997053 L454,232 C441.849736,232 432,222.152936 432,210 C432,197.971238 441.651107,188.197225 453.636111,188.002947 L454,188 Z M384,188 C396.028762,188 405.802775,197.651107 405.997053,209.636111 L406,210 C406,222.028762 396.348893,231.802775 384.363889,231.997053 L384,232 C371.849736,232 362,222.152936 362,210 C362,197.971238 371.651107,188.197225 383.636111,188.002947 L384,188 Z" id="Circles" fill="#00A8E8"></path>
        </g>
    </g>
</svg>