<?xml version="1.0" encoding="UTF-8"?>
<svg width="375px" height="363px" viewBox="0 0 375 363" version="1.1" xmlns="http://www.w3.org/2000/svg" xmlns:xlink="http://www.w3.org/1999/xlink">
    <!-- Generator: Sketch 57.1 (83088) - https://sketch.com -->
    <title>Watch</title>
    <desc>Created with Sketch.</desc>
    <g id="Page-1" stroke="none" stroke-width="1" fill="none" fill-rule="evenodd">
        <g id="iPhone-7" transform="translate(0.000000, -280.000000)">
            <g id="Watch" transform="translate(188.000000, 452.500000) rotate(-55.000000) translate(-188.000000, -452.500000) translate(119.000000, 146.000000)">
                <g id="Group">
                    <rect id="Watch" stroke="#64D2FF" stroke-width="10" fill-opacity="0" fill="#D8D8D8" x="-5" y="230.621875" width="131.478873" height="150.613193" rx="16"></rect>
                    <rect id="Top-Band" fill="#64D2FF" x="20.4084507" y="0" width="81.6338028" height="230.832813"></rect>
                    <path d="M102.042254,381.401799 L102.042254,613 L20.4084507,613 L20.4084507,381.401799 L102.042254,381.401799 Z M62.6830986,588.185907 C58.1209154,588.185907 54.4225352,591.889123 54.4225352,596.457271 C54.4225352,601.02542 58.1209154,604.728636 62.6830986,604.728636 C67.2452818,604.728636 70.943662,601.02542 70.943662,596.457271 C70.943662,591.889123 67.2452818,588.185907 62.6830986,588.185907 Z M62.6830986,547.748126 C58.1209154,547.748126 54.4225352,551.451342 54.4225352,556.01949 C54.4225352,560.587639 58.1209154,564.290855 62.6830986,564.290855 C67.2452818,564.290855 70.943662,560.587639 70.943662,556.01949 C70.943662,551.451342 67.2452818,547.748126 62.6830986,547.748126 Z M62.6830986,507.310345 C58.1209154,507.310345 54.4225352,511.013561 54.4225352,515.581709 C54.4225352,520.149858 58.1209154,523.853073 62.6830986,523.853073 C67.2452818,523.853073 70.943662,520.149858 70.943662,515.581709 C70.943662,511.013561 67.2452818,507.310345 62.6830986,507.310345 Z" id="Bottom-Band" fill="#64D2FF"></path>
                    <rect id="Digital-Crown" fill="#64D2FF" x="131.197183" y="255.735938" width="6.8028169" height="32.565625" rx="3.40140845"></rect>
                    <rect id="Home-Button" fill="#64D2FF" x="128.28169" y="304.584375" width="6.8028169" height="41.1859375" rx="3.40140845"></rect>
                </g>
            </g>
        </g>
    </g>
</svg>