<?xml version="1.0" encoding="UTF-8"?>
<svg width="530px" height="314px" viewBox="0 0 530 314" version="1.1" xmlns="http://www.w3.org/2000/svg" xmlns:xlink="http://www.w3.org/1999/xlink">
    <!-- Generator: Sketch 61.2 (89653) - https://sketch.com -->
    <title>404</title>
    <desc>Created with Sketch.</desc>
    <g id="404" stroke="none" stroke-width="1" fill="none" fill-rule="evenodd">
        <g id="Body" transform="translate(178.000000, 50.000000)" stroke="#00A8E8">
            <path d="M18,18 L35.9973096,0 L35.9973096,0 L167,0 C171.418278,-8.11624501e-16 175,3.581722 175,8 L175,239 C175,243.418278 171.418278,247 167,247 L8,247 C3.581722,247 5.41083001e-16,243.418278 0,239 L0,36.0199439 L0,36.0199439 L18,18 Z" fill="#003459"></path>
            <path d="M36,0 L36,31 C36,33.7614237 33.7614237,36 31,36 L0,36 L0,36" id="Path"></path>
            <g id="Text" transform="translate(21.000000, 165.000000)" stroke-linecap="square">
                <line x1="0.5" y1="25.5" x2="133.5" y2="25.5" id="Line-2"></line>
                <line x1="0.5" y1="40.5" x2="133.5" y2="40.5" id="Line-2"></line>
                <line x1="0.5" y1="0.5" x2="70.5" y2="0.5" id="Line"></line>
                <line x1="0.5" y1="55.5" x2="70.5" y2="55.5" id="Line"></line>
            </g>
            <g id="Legs" transform="translate(82.000000, 247.000000)" stroke-linecap="square">
                <line x1="10.5" y1="0.5" x2="10.5" y2="16.5" id="Line-3"></line>
                <line x1="0.5" y1="0.5" x2="0.5" y2="16.5" id="Line-3"></line>
            </g>
            <g id="Face" transform="translate(41.000000, 67.000000)">
                <g id="Eyebrows">
                    <path d="M92.5686397,6.55652735 C90.8114047,6.19492569 88.9416638,6 87.0024964,6 C80.8393736,6 75.3775393,7.96897457 72,11" id="LeftEyebrow" transform="translate(82.284320, 8.500000) rotate(214.000000) translate(-82.284320, -8.500000) "></path>
                    <path d="M20.5686397,6.55652735 C18.8114047,6.19492569 16.9416638,6 15.0024964,6 C8.83937362,6 3.37753933,7.96897457 0,11" id="LeftEyebrow" transform="translate(10.284320, 8.500000) scale(-1, 1) rotate(214.000000) translate(-10.284320, -8.500000) "></path>
                </g>
                <g id="Eyes" transform="translate(6.000000, 29.000000)">
                    <path d="M30,4.99552159 C26.6220724,1.96703524 21.1625832,0 15.0024964,0 C8.83937362,0 3.37753933,1.96897457 0,5" id="RightEye" transform="translate(15.000000, 2.500000) rotate(180.000000) translate(-15.000000, -2.500000) "></path>
                    <path d="M81,4.99552159 C77.6220724,1.96703524 72.1625832,0 66.0024964,0 C59.8393736,0 54.3775393,1.96897457 51,5" id="LeftEye" transform="translate(66.000000, 2.500000) rotate(180.000000) translate(-66.000000, -2.500000) "></path>
                </g>
                <line x1="37.5" y1="68.5" x2="55.5" y2="68.5" id="Mouth" stroke-linecap="square"></line>
            </g>
        </g>
        <path d="M185.001469,160.989252 C177.00704,153.720885 164.086249,149 149.507377,149 C134.92132,149 121.994979,153.725539 114.001469,161" id="RightArm" stroke="#00A8E8" transform="translate(149.501469, 155.000000) rotate(-208.000000) translate(-149.501469, -155.000000) "></path>
        <path d="M411.980278,120.684382 C403.985849,113.416015 391.065058,108.69513 376.486186,108.69513 C367.300223,108.69513 358.772535,110.569369 351.720686,113.774168" id="Path" stroke="#00A8E8" transform="translate(381.850482, 114.689756) rotate(-210.000000) translate(-381.850482, -114.689756) "></path>
        <g transform="translate(458.003913, 67.500000) rotate(11.000000) translate(-458.003913, -67.500000) translate(415.003913, 7.000000)">
            <rect id="Rectangle" stroke="#00A8E8" fill="#003459" x="0.5" y="0" width="85" height="50" rx="8"></rect>
            <path d="M31.46875,33 L31.46875,28.828125 L33.8007812,28.828125 L33.8007812,26.90625 L31.46875,26.90625 L31.46875,15.5039062 L28.7265625,15.5039062 L21.6953125,26.5898438 L21.6953125,28.828125 L29.1132812,28.828125 L29.1132812,33 L31.46875,33 Z M29.1132812,26.90625 L23.59375,26.90625 L29.1132812,17.6601562 L29.1132812,26.90625 Z M42.1679688,33.3398438 C44.0351562,33.3398438 45.4472656,32.578125 46.4042969,31.0546875 C47.3613281,29.53125 47.8398438,27.2773438 47.8398438,24.2929688 C47.8398438,21.3085938 47.3613281,19.0546875 46.4042969,17.53125 C45.4472656,16.0078125 44.0351562,15.2460938 42.1679688,15.2460938 C40.3007812,15.2460938 38.890625,16.0078125 37.9375,17.53125 C36.984375,19.0546875 36.5078125,21.3085938 36.5078125,24.2929688 C36.5078125,27.2773438 36.984375,29.53125 37.9375,31.0546875 C38.890625,32.578125 40.3007812,33.3398438 42.1679688,33.3398438 Z M39.109375,27.3867188 C38.9609375,26.4257812 38.8867188,25.3945312 38.8867188,24.2929688 C38.8867188,21.8710938 39.1582031,20.0703125 39.7011719,18.890625 C40.2441406,17.7109375 41.0664062,17.1210938 42.1679688,17.1210938 C43.1757812,17.1210938 43.9765625,17.640625 44.5703125,18.6796875 L44.5703125,18.6796875 L39.109375,27.3867188 Z M42.1679688,31.4648438 C41.0742188,31.4648438 40.234375,30.8203125 39.6484375,29.53125 L39.6484375,29.53125 L45.2265625,20.8007812 C45.3828125,21.8398438 45.4609375,23.0039062 45.4609375,24.2929688 C45.4609375,26.7148438 45.1894531,28.515625 44.6464844,29.6953125 C44.1035156,30.875 43.2773438,31.4648438 42.1679688,31.4648438 Z M60.3671875,33 L60.3671875,28.828125 L62.6992188,28.828125 L62.6992188,26.90625 L60.3671875,26.90625 L60.3671875,15.5039062 L57.625,15.5039062 L50.59375,26.5898438 L50.59375,28.828125 L58.0117188,28.828125 L58.0117188,33 L60.3671875,33 Z M58.0117188,26.90625 L52.4921875,26.90625 L58.0117188,17.6601562 L58.0117188,26.90625 Z" fill="#00A8E8" fill-rule="nonzero"></path>
            <line x1="0.5" y1="32" x2="0.5" y2="120" id="Line-4" stroke="#00A8E8" stroke-linecap="square"></line>
        </g>
    </g>
</svg>